<?xml version="1.0" encoding="UTF-8" standalone="no"?>
<!-- Created with Inkscape (http://www.inkscape.org/) -->

<svg
   xmlns:dc="http://purl.org/dc/elements/1.1/"
   xmlns:cc="http://creativecommons.org/ns#"
   xmlns:rdf="http://www.w3.org/1999/02/22-rdf-syntax-ns#"
   xmlns:svg="http://www.w3.org/2000/svg"
   xmlns="http://www.w3.org/2000/svg"
   xmlns:sodipodi="http://sodipodi.sourceforge.net/DTD/sodipodi-0.dtd"
   xmlns:inkscape="http://www.inkscape.org/namespaces/inkscape"
   width="2048"
   height="2048"
   id="svg5366"
   version="1.1"
   inkscape:version="0.47 r22583"
   sodipodi:docname="batcave.svg">
  <defs
     id="defs5368">
    <inkscape:perspective
       sodipodi:type="inkscape:persp3d"
       inkscape:vp_x="0 : 526.18109 : 1"
       inkscape:vp_y="0 : 1000 : 0"
       inkscape:vp_z="744.09448 : 526.18109 : 1"
       inkscape:persp3d-origin="372.04724 : 350.78739 : 1"
       id="perspective5374" />
  </defs>
  <sodipodi:namedview
     id="base"
     pagecolor="#ffffff"
     bordercolor="#666666"
     borderopacity="1.0"
     inkscape:pageopacity="0.0"
     inkscape:pageshadow="2"
     inkscape:zoom="0.35"
     inkscape:cx="837.83407"
     inkscape:cy="649.36664"
     inkscape:document-units="px"
     inkscape:current-layer="layer3"
     showgrid="false"
     inkscape:window-width="1251"
     inkscape:window-height="713"
     inkscape:window-x="121"
     inkscape:window-y="77"
     inkscape:window-maximized="0" />
  <metadata
     id="metadata5371">
    <rdf:RDF>
      <cc:Work
         rdf:about="">
        <dc:format>image/svg+xml</dc:format>
        <dc:type
           rdf:resource="http://purl.org/dc/dcmitype/StillImage" />
        <dc:title></dc:title>
      </cc:Work>
    </rdf:RDF>
  </metadata>
  <g
     inkscape:label="ground"
     inkscape:groupmode="layer"
     id="layer1"
     transform="translate(0,995.63782)">
    <path
       style="fill:#000000;stroke:#000000;stroke-width:1.20586967px;stroke-linecap:butt;stroke-linejoin:miter;stroke-opacity:1"
       d="m 1248.2411,-181.28961 -109.0938,6.0625 -84.8437,46.4688 -107.09378,26.2812 -104.0625,18.843804 -106.3125,0 -81.59375,-68.093804 -117.8125,-5.2188 -90.65625,62.843804 -4.53125,83.8125 54.375,68.0937 203.96875,5.25 45.3125,-68.0936997 94.84375,0 70.09375,3.5625 58.59375,26.2811997 40.40623,48.4688 28.2813,58.593796 14.1562,82.8437 -2.0312,48.4687 222.25,2.0313 0,52.5313 -101.0313,22.2187 -40.4062,8.0937 -46.4688,4.0313 -38.375,2 -58.59373,-2 -36.375,-28.2813 -58.5625,-24.25 -30.3125,-30.3124 -46.46875,-34.3438 -32.3125,-36.375 -72.75,-18.1562 -30.3125,20.1874 -8.0625,64.6563 58.59375,40.4063 42.40625,-18.1876 32.34375,0 40.40625,30.3126 32.3125,18.1874 62.625,34.3438 48.5,18.1562 59.12498,1.9376 14.0938,62 2.8437,85.7187 -40,91.4063 -39.99998,31.4374 -71.4375,-5.7187 -34.28125,-85.7187 -77.125,-57.125 -100,-14.2813 -131.4375,14.2813 -100,37.125 -71.4375,60 -82.84375,14.3124 -94.28125,11.4063 0,60 108.5625,5.7187 74.28125,17.1563 54.28125,37.125 97.15625,8.5937 111.4375,5.6876 82.84375,-2.8438 134.28125,14.2812 111.4375,-28.5624 111.43748,2.8437 131.4063,-34.2813 114.2812,-2.8437 102.8751,-48.5937 91.4374,-28.5626 102.8438,-42.8437 71.4375,14.2813 51.4063,-25.7188 11.4374,-71.4375 -40,-28.5625 -65.7187,37.1562 -65.7187,54.2813 -120,17.125 -80,37.1563 -85.6876,-17.1563 -85.7187,-22.8437 -62.875,-34.2813 -5.7188,-31.4375 80,0 111.4375,-2.8438 2.875,-42.875 14.2813,-97.125 4.5313,-60.9687 4.2812,-1.0625 -4.0312,-99 -14.1563,-84.8438 22.2187,-98.999996 8.0938,-103.0312 -8.0938,-58.593804 -62.625,-44.4374 -84.8437,-14.1563 z"
       id="path5968" />
  </g>
  <g
     inkscape:groupmode="layer"
     id="layer3"
     inkscape:label="spikes">
    <path
       style="fill:#ff0000;stroke:#000000;stroke-width:1px;stroke-linecap:butt;stroke-linejoin:miter;stroke-opacity:1"
       d="m 1062.8571,1273.7143 28.5715,-111.4286 11.4285,117.1429 25.7143,-114.2857 11.4286,114.2857 22.8571,-108.5715 11.4286,100 34.2857,-102.8571 0,102.8571 37.1429,-97.1428 5.7143,102.8571 -80,25.7143 -108.5715,-28.5714 z"
       id="path5978" />
    <path
       style="fill:#ff0000;stroke:#000000;stroke-width:1px;stroke-linecap:butt;stroke-linejoin:miter;stroke-opacity:1"
       d="m 1194.2857,1533.7143 25.7143,-74.2857 8.5714,77.1428 28.5715,-77.1428 0,82.8571 42.8571,-88.5714 0,88.5714 25.7143,-94.2857 25.7143,94.2857 34.2857,-60 -42.8572,-42.8571 45.7143,-2.8572 11.4286,94.2857 -54.2857,42.8572 -151.4286,-40 z"
       id="path5980" />
  </g>
  <g
     inkscape:groupmode="layer"
     id="layer2"
     inkscape:label="player">
    <path
       style="fill:#000000;fill-opacity:1;stroke:#3bffff;stroke-width:20;stroke-linecap:butt;stroke-linejoin:miter;stroke-miterlimit:4;stroke-opacity:1;stroke-dasharray:none"
       d="m 588.56696,970.36746 -60,8.5625 60,-8.5625 z"
       id="path5917" />
  </g>
</svg>
